<svg width="33" height="32" viewBox="0 0 33 32" fill="none" xmlns="http://www.w3.org/2000/svg">
    <path d="M32.0405 15.3265C32.0405 14.6587 31.9692 13.9988 31.8243 13.3468C31.8176 13.2727 31.817 13.198 31.803 13.125C31.3672 10.8257 30.4691 8.72186 29.119 6.81235C28.3614 5.7419 27.501 4.76244 26.485 3.92731C26.4182 3.86329 26.3547 3.79533 26.2839 3.73692C23.4719 1.41855 20.2488 0.165577 16.6044 0.0145014C15.5862 -0.0276202 14.5702 0.0173095 13.5655 0.21163C13.4818 0.21837 13.397 0.21837 13.315 0.233533C11.1696 0.638461 9.15396 1.38092 7.33263 2.59964C3.43217 5.20893 1.01889 8.81958 0.227007 13.4479C-0.306533 16.5666 0.10345 19.592 1.42494 22.4877C4.42175 29.0542 11.6161 33.3888 19.4086 31.5916C25.656 30.1505 29.6756 26.181 31.5306 20.0452C31.9945 18.5109 32.1197 16.9266 32.0405 15.3265ZM30.3596 19.7083C28.6618 25.174 25.1444 28.9076 19.5563 30.2679C13.329 31.7831 8.17786 29.7495 4.23417 24.7376C2.19043 22.1407 1.15761 19.1405 1.21827 15.8224C1.29409 11.6973 2.90425 8.21303 5.85725 5.36225C7.85774 3.43084 10.2368 2.15933 12.9623 1.5584C12.9977 1.55053 13.0303 1.53144 13.0645 1.5174C13.0802 1.532 13.0965 1.54323 13.1134 1.55166C13.1285 1.53256 13.1448 1.51627 13.1622 1.50392C13.8328 1.41294 14.5006 1.29612 15.1779 1.25961C19.0301 1.05518 22.4312 2.21212 25.4157 4.63944C26.3777 5.42178 27.2331 6.31588 27.952 7.31332C29.4335 9.37109 30.4495 11.6367 30.7606 14.1847C30.8729 15.1013 30.8875 16.0184 30.8606 16.9384H30.8589C30.8589 16.9384 30.8538 16.9412 30.851 16.9434C30.8538 16.9474 30.8566 16.9513 30.86 16.9547C30.7584 17.8847 30.6382 18.8125 30.3596 19.7083Z" fill="white"/>
    <path d="M28.4877 15.8247C24.4042 11.7731 20.3184 7.72386 16.2388 3.6684C16.0815 3.51227 16.004 3.48531 15.8299 3.65942C12.8461 6.64106 9.8543 9.61484 6.86367 12.5903C5.78368 13.6647 4.702 14.7379 3.62088 15.8118C3.49227 15.8932 3.38668 15.978 3.57482 16.1083C3.7405 16.2661 3.90618 16.4234 4.07186 16.5812C4.14712 16.6632 4.219 16.7485 4.29763 16.8272C8.129 20.6383 11.9632 24.4478 15.7895 28.2651C15.9782 28.4533 16.0692 28.4909 16.2809 28.2786C18.4724 26.0804 20.679 23.8968 22.8788 21.7065C23.7859 20.8034 24.6856 19.8936 25.5887 18.9866C26.576 18.0178 27.5616 17.0473 28.5523 16.0825C28.6978 15.9404 28.5557 15.8926 28.4877 15.8247ZM16.6437 25.9821V23.4021C16.6426 22.4759 16.6426 21.5493 16.6415 20.6232V20.6024C16.6409 20.1233 16.6409 19.6448 16.6398 19.1663V19.1461C16.6392 18.6142 16.6387 18.0824 16.6375 17.5505V17.5449C16.6375 17.3309 16.637 17.1175 16.6364 16.9035V16.8805C16.6364 16.7396 16.6426 16.6547 16.8465 16.6553C18.8419 16.6615 20.8373 16.6626 22.8322 16.6632H22.8491C23.8403 16.6632 24.8316 16.6632 25.8228 16.6637C25.8577 16.6637 25.8925 16.6699 25.9902 16.6783C22.8895 19.8088 19.7995 22.8797 16.6437 25.9821ZM16.646 6.0581C16.7707 6.09572 16.8364 6.18727 16.9116 6.26084C17.9343 7.26277 18.9554 8.26695 19.9775 9.26944C20.0438 9.33459 20.1157 9.39356 20.1847 9.45534C20.2179 9.48791 20.251 9.51992 20.2842 9.55194C20.4038 9.70245 20.538 9.83892 20.6924 9.95406C20.711 10.0035 20.7447 10.0377 20.7947 10.0551C20.8199 10.1119 20.8604 10.1529 20.9177 10.1765C21.3759 10.6415 21.8297 11.1104 22.2925 11.571C23.2916 12.5639 24.2952 13.5529 25.2966 14.5431C25.3185 14.5992 25.3573 14.6391 25.4134 14.661C25.432 14.7138 25.4673 14.7497 25.5201 14.7683C25.542 14.825 25.5808 14.8643 25.6375 14.8862C25.6566 14.9384 25.692 14.9738 25.7442 14.9929C25.806 15.071 25.8678 15.1485 25.9284 15.2249C25.8689 15.2996 25.7981 15.2675 25.7386 15.2675C22.8098 15.2681 19.8803 15.2642 16.9515 15.2704C16.7201 15.2709 16.6359 15.2383 16.637 14.9733C16.6415 13.4895 16.642 12.0051 16.6409 10.5213V10.5056C16.6449 10.3017 16.6493 10.1001 16.6595 9.89621C16.6684 9.70582 16.6538 9.51318 16.6404 9.31999V9.30482C16.6392 8.27425 16.6376 7.24424 16.637 6.21367C16.637 6.16874 16.642 6.12324 16.646 6.0581ZM15.3059 6.162C15.3408 6.22658 15.3531 6.30072 15.3498 6.38945C15.3481 6.4327 15.3453 6.49111 15.3593 6.53604V7.16C15.3172 7.22851 15.3492 7.3268 15.3492 7.40093C15.343 9.94619 15.3441 12.4915 15.3441 15.0367C15.3441 15.0783 15.3464 15.1193 15.3514 15.1586C15.334 15.2305 15.2835 15.2732 15.138 15.2726C12.2109 15.2636 9.28369 15.2664 6.35597 15.2664H6.14311C9.20057 12.196 12.2142 9.1852 15.3059 6.162ZM15.3604 25.78C15.3604 25.8047 15.352 25.8288 15.3391 25.9035C12.2255 22.8545 9.17699 19.7914 6.09032 16.6609H7.71677C10.1767 16.6609 12.6371 16.662 15.0976 16.6592C15.2627 16.6592 15.3672 16.6525 15.3666 16.8833C15.3576 19.8487 15.361 22.814 15.3604 25.78Z" fill="white"/>
    <path d="M11.5802 25.5401C10.9725 25.5424 10.3643 25.5463 9.75658 25.5328C7.90435 25.4907 6.57444 24.1468 6.55141 22.2973C6.54411 21.6897 6.54917 21.082 6.54692 20.4738C6.54692 20.3828 6.56489 20.2862 6.48739 20.2104C6.12907 19.861 5.77244 19.5111 5.37313 19.1203C5.42255 20.3036 5.34505 21.4257 5.42031 22.5473C5.577 24.8729 7.32645 26.5937 9.6538 26.6662C10.7096 26.6988 11.7672 26.6757 12.8241 26.6769C12.8657 26.6769 12.9191 26.6926 12.946 26.6241C12.6102 26.3068 12.2693 25.9894 11.9345 25.6654C11.8318 25.5654 11.7183 25.5396 11.5802 25.5401Z" fill="white"/>
    <path d="M20.5155 6.46415C21.1052 6.45741 21.6944 6.4546 22.2835 6.46639C23.9673 6.49897 25.3612 7.76149 25.5443 9.4368C25.6173 10.1068 25.5578 10.783 25.5679 11.4558C25.569 11.5479 25.537 11.6496 25.6004 11.7288C25.9329 12.1388 26.3204 12.4937 26.7186 12.852C26.704 11.6159 26.8304 10.391 26.6456 9.17621C26.3474 7.21166 24.8215 5.64531 22.9434 5.39763C21.6899 5.23195 20.4268 5.37292 19.1682 5.32013C19.4911 5.66215 19.7978 5.97779 20.0932 6.30296C20.2123 6.43382 20.3465 6.46639 20.5155 6.46415Z" fill="white"/>
    <path d="M6.40034 11.8259C6.51322 11.7097 6.5486 11.5833 6.5458 11.4238C6.53625 10.8908 6.53569 10.3579 6.53962 9.82488C6.55478 7.91313 7.94928 6.50122 9.86272 6.46583C10.4423 6.45572 11.0219 6.46752 11.6015 6.46696C11.6846 6.46696 11.8003 6.48718 11.8458 6.44281C12.2109 6.08056 12.563 5.70596 12.9112 5.34203C11.8087 5.34203 10.695 5.29486 9.58641 5.35214C7.39159 5.46615 5.65844 7.15775 5.43042 9.34582C5.31023 10.5022 5.40908 11.6625 5.42536 12.8554C5.74998 12.5117 6.07123 12.1652 6.40034 11.8259Z" fill="white"/>
    <path d="M26.7119 21.023C26.7214 20.403 26.7141 19.783 26.7141 19.0927C26.3581 19.4595 26.0233 19.7498 25.7425 20.0947C25.5802 20.1924 25.5415 20.3395 25.5409 20.5226C25.5398 21.2803 25.6128 22.0435 25.51 22.7944C25.2977 24.3461 24.0375 25.4649 22.4554 25.53C21.7921 25.5576 21.1271 25.5357 20.4627 25.5368C20.3617 25.5373 20.26 25.5194 20.1752 25.6075C19.8354 25.9597 19.4911 26.3079 19.1165 26.6903C20.3869 26.6589 21.6191 26.7386 22.8496 26.6364C23.0164 26.6229 23.1832 26.5881 23.3467 26.5511C25.1826 26.1327 26.6344 24.4152 26.6563 22.6388C26.667 22.613 26.6782 22.5883 26.6782 22.5591V22.5119C26.754 22.0177 26.7046 21.5189 26.7119 21.023Z" fill="white"/>
    </svg>
    